<?xml version="1.0" encoding="iso-8859-1"?>
<!-- Generator: Adobe Illustrator 19.0.0, SVG Export Plug-In . SVG Version: 6.00 Build 0)  -->
<svg version="1.1" id="Capa_1" xmlns="http://www.w3.org/2000/svg" xmlns:xlink="http://www.w3.org/1999/xlink" x="0px" y="0px"
	 viewBox="0 0 512 512" style="enable-background:new 0 0 512 512;" xml:space="preserve">
<path style="fill:#629ACC;" d="M446.326,149.458c-4.267,0-7.726-3.459-7.726-7.726v-14.433c0-4.402-3.582-7.984-7.984-7.984H246.471
	c-12.923,0-23.437-10.514-23.437-23.437s10.514-23.437,23.437-23.437h184.145c4.402,0,7.984-3.581,7.984-7.984v-21.89
	c0-4.267,3.459-7.726,7.726-7.726s7.726,3.459,7.726,7.726v21.891c0,12.923-10.514,23.437-23.437,23.437H246.471
	c-4.402,0-7.984,3.581-7.984,7.984c0,4.402,3.581,7.984,7.984,7.984h184.145c12.923,0,23.437,10.514,23.437,23.437v14.433
	C454.052,145.999,450.593,149.458,446.326,149.458z"/>
<path style="fill:#48709B;" d="M459.461,175.214h-26.27v-27.3c0-3.414,2.767-6.181,6.181-6.181h13.907
	c3.414,0,6.181,2.767,6.181,6.181L459.461,175.214L459.461,175.214z"/>
<path style="fill:#629ACC;" d="M468.217,173.913v27.3h-43.783v-27.3c0-3.41,2.771-6.181,6.181-6.181h31.421
	C465.446,167.732,468.217,170.503,468.217,173.913z"/>
<rect x="424.44" y="178.369" style="fill:#48709B;" width="43.783" height="22.839"/>
<path style="fill:#629ACC;" d="M512,411.885v59.091c0,3.41-2.771,6.181-6.181,6.181H6.181c-3.41,0-6.181-2.771-6.181-6.181v-59.091
	H512z"/>
<rect y="411.88" style="fill:#48709B;" width="512" height="30.576"/>
<path style="fill:#AFB9D2;" d="M505.819,429.068H6.181c-3.414,0-6.181-2.768-6.181-6.181V197.942c0-3.414,2.767-6.181,6.181-6.181
	h499.638c3.414,0,6.181,2.767,6.181,6.181v224.943C512,426.299,509.233,429.068,505.819,429.068z"/>
<path style="fill:#959CB3;" d="M505.819,429.068H6.181c-3.414,0-6.181-2.768-6.181-6.181v-7.908h512v7.908
	C512,426.299,509.233,429.068,505.819,429.068z"/>
<path style="fill:#C7CFE2;" d="M512,205.852H0v-7.908c0-3.414,2.767-6.181,6.181-6.181h499.638c3.414,0,6.181,2.767,6.181,6.181
	V205.852z"/>
<path style="fill:#629ACC;" d="M265.956,242.846v19.873c0,10.449,15.699,18.919,35.065,18.919s35.065-8.47,35.065-18.919v-19.873
	H265.956z"/>
<ellipse style="fill:#0086F4;" cx="301.02" cy="242.85" rx="35.06" ry="18.919"/>
<path style="fill:#629ACC;" d="M369.455,267.947v19.873c0,10.449,15.699,18.919,35.065,18.919s35.065-8.47,35.065-18.919v-19.873
	H369.455z"/>
<ellipse style="fill:#E94141;" cx="404.52" cy="267.95" rx="35.06" ry="18.919"/>
<path style="fill:#629ACC;" d="M265.956,326.221v19.873c0,10.449,15.699,18.919,35.065,18.919s35.065-8.47,35.065-18.919v-19.873
	H265.956z"/>
<ellipse style="fill:#E94141;" cx="301.02" cy="326.22" rx="35.06" ry="18.919"/>
<path style="fill:#629ACC;" d="M369.455,351.321v19.873c0,10.449,15.699,18.919,35.065,18.919s35.065-8.47,35.065-18.919v-19.873
	H369.455z"/>
<ellipse style="fill:#0086F4;" cx="404.52" cy="351.32" rx="35.06" ry="18.919"/>
<path style="fill:#E94141;" d="M193.087,306.634c0,19.398-29.144,35.129-65.107,35.129c-35.953,0-65.107-15.731-65.107-35.129
	c0-14.526,16.339-26.991,39.631-32.337c7.829-1.793,16.431-2.792,25.476-2.792s17.657,0.999,25.487,2.792
	C176.759,279.654,193.087,292.118,193.087,306.634z"/>
<path style="fill:#C62525;" d="M153.466,274.297v13.104c0,14.052-11.435,25.487-25.487,25.487
	c-14.041,0-25.476-11.435-25.476-25.487v-13.104c7.829-1.793,16.431-2.792,25.476-2.792S145.637,272.504,153.466,274.297z"/>
<path style="fill:#629ACC;" d="M140.073,165.813v121.591c0,6.677-5.412,12.089-12.089,12.089l0,0
	c-6.677,0-12.089-5.412-12.089-12.089V165.813H140.073z"/>
<rect x="115.89" y="165.809" style="fill:#48709B;" width="24.18" height="18.801"/>
<circle style="fill:#E94141;" cx="127.98" cy="115.829" r="53.825"/>
<path style="fill:#C62525;" d="M180.137,129.154c-5.924,23.282-27.032,40.507-52.158,40.507s-46.235-17.225-52.158-40.507
	c11.363,14.196,30.483,23.509,52.158,23.509S168.775,143.35,180.137,129.154z"/>
<path style="fill:#F28383;" d="M181.281,108.329c-8.942-19.058-29.443-32.379-53.302-32.379s-44.36,13.32-53.302,32.379
	c3.647-26.177,26.125-46.317,53.302-46.317C155.165,62.012,177.634,82.152,181.281,108.329z"/>
<g>
	<path style="fill:#48709B;" d="M53.054,460.82v16.339H37.602V460.82c0-4.265,3.461-7.726,7.726-7.726S53.054,456.555,53.054,460.82
		z"/>
	<path style="fill:#48709B;" d="M77.779,460.82v16.339H62.326V460.82c0-4.265,3.461-7.726,7.726-7.726
		C74.317,453.092,77.779,456.555,77.779,460.82z"/>
	<path style="fill:#48709B;" d="M102.503,460.82v16.339H87.05V460.82c0-4.265,3.461-7.726,7.726-7.726
		C99.042,453.092,102.503,456.555,102.503,460.82z"/>
	<path style="fill:#48709B;" d="M127.227,460.82v16.339h-15.453V460.82c0-4.265,3.461-7.726,7.726-7.726
		C123.766,453.092,127.227,456.555,127.227,460.82z"/>
	<path style="fill:#48709B;" d="M28.845,405.052c-4.267,0-7.726-3.459-7.726-7.726v-0.967c0-4.267,3.459-7.726,7.726-7.726
		s7.726,3.459,7.726,7.726v0.967C36.571,401.592,33.112,405.052,28.845,405.052z"/>
	<path style="fill:#48709B;" d="M50.479,405.052c-4.267,0-7.726-3.459-7.726-7.726v-0.967c0-4.267,3.459-7.726,7.726-7.726
		s7.726,3.459,7.726,7.726v0.967C58.205,401.592,54.746,405.052,50.479,405.052z"/>
	<path style="fill:#48709B;" d="M461.521,228.891c-4.267,0-7.726-3.459-7.726-7.726v-0.967c0-4.267,3.459-7.726,7.726-7.726
		s7.726,3.459,7.726,7.726v0.967C469.247,225.432,465.788,228.891,461.521,228.891z"/>
	<path style="fill:#48709B;" d="M483.155,228.891c-4.267,0-7.726-3.459-7.726-7.726v-0.967c0-4.267,3.459-7.726,7.726-7.726
		s7.726,3.459,7.726,7.726v0.967C490.881,225.432,487.422,228.891,483.155,228.891z"/>
</g>
<g>
</g>
<g>
</g>
<g>
</g>
<g>
</g>
<g>
</g>
<g>
</g>
<g>
</g>
<g>
</g>
<g>
</g>
<g>
</g>
<g>
</g>
<g>
</g>
<g>
</g>
<g>
</g>
<g>
</g>
</svg>
